# xmcd CD database file
#
# Track frame offsets:
#	150
#	24600
#	48375
#
# Disc length: 906 seconds
#
# Revision: 1
# Processed by: cddbd v1.5.2PL0 Copyright (c) Steve Scherf et al.
# Submitted via: CDex 1.51
#
DISCID=1e038803
DTITLE=Lifeforce - Disco Fever EP
DYEAR=1992
DGENRE=Disco/House
TTITLE0=Feel your Body
TTITLE1=Dancing in the Key of Love
TTITLE2=H.O.T.
EXTD=YEAR: 1992
EXTT0=
EXTT1=
EXTT2=
PLAYORDER=
